<svg viewBox="0 0 24 24" xmlns="http://www.w3.org/2000/svg" xmlns:xlink="http://www.w3.org/1999/xlink" width="24.000000" height="24.000000" fill="none" customFrame="#000000">
	<rect id="icn/general/upload" width="24.000000" height="24.000000" x="0.000000" y="0.000000" />
	<g id="icn/general/upload">
		<rect id="container" width="24.000000" height="24.000000" x="0.000000" y="0.000000" fill="rgb(215.985,215.985,215.985)" fill-opacity="0" />
		<rect id="container" width="24.000000" height="24.000000" x="0.000000" y="0.000000" stroke="rgb(150.96,150.96,150.96)" stroke-opacity="0" stroke-width="0" />
		<path id="upload" d="M17.608 7.63593C19.608 7.63593 21.408 9.13593 22.008 11.1359C22.308 12.5359 22.308 14.322 21.31 15.0548C20.839 15.416 19.6102 15.7009 17.9908 15.8911C17.9651 15.4162 17.7708 14.9486 17.408 14.5858L13.408 10.5858L13.2686 10.4602L13.2205 10.4203C12.428 9.80407 11.2947 9.87067 10.5796 10.5858L6.57958 14.5858L6.45391 14.7252C6.22831 15.0143 6.08816 15.3379 6.03044 15.6673C5.113 15.5059 4.31486 15.3028 3.70042 15.0548C1.44282 12.6556 1.70803 8.53593 2.90803 6.03593C4.30803 3.33593 7.20803 1.73593 10.208 2.03593C13.208 2.43593 15.708 4.63593 16.408 7.63593L17.608 7.63593ZM8.00308 17C7.7855 17.0007 7.56775 16.9308 7.3871 16.7903L7.29289 16.7071C7.05141 16.4656 6.95925 16.1313 7.01642 15.819C7.0144 15.8188 7.01238 15.8185 7.01036 15.8182C7.03861 15.6646 7.10299 15.5164 7.20349 15.3871L7.28668 15.2929L11.2867 11.2929C11.6472 10.9324 12.2144 10.9047 12.6067 11.2097L12.7009 11.2929L16.7009 15.2929C17.0914 15.6835 17.0914 16.3166 16.7009 16.7071C16.508 16.9 16.2559 16.9977 16.0031 17C15.7855 17.0007 15.5678 16.9308 15.3871 16.7903L15.2929 16.7071L14.7137 16.128L14.7076 16.1282L12.9938 14.415L12.9938 21C12.9938 21.5492 12.5511 21.995 12.0032 22L12 22C11.4872 22 11.0645 21.614 11.0067 21.1166L11 21L11 16.1316L10.9938 16.1314L10.9938 14.415L8.7009 16.7071C8.508 16.9 8.25589 16.9977 8.00308 17Z" fill="rgb(63,140,255)" fill-rule="evenodd" />
		<path id="upload" d="M22.008 11.1359C22.308 12.5359 22.308 14.322 21.31 15.0548C20.839 15.416 19.6102 15.7009 17.9908 15.8911C17.9651 15.4162 17.7708 14.9486 17.408 14.5858L13.408 10.5858L13.2686 10.4602L13.2205 10.4203C12.428 9.80407 11.2947 9.87067 10.5796 10.5858L6.57958 14.5858L6.45391 14.7252C6.22831 15.0143 6.08816 15.3379 6.03044 15.6673C5.113 15.5059 4.31486 15.3028 3.70042 15.0548C1.44282 12.6556 1.70803 8.53593 2.90803 6.03593C4.30803 3.33593 7.20803 1.73593 10.208 2.03593C13.208 2.43593 15.708 4.63593 16.408 7.63593L17.608 7.63593C19.608 7.63593 21.408 9.13593 22.008 11.1359ZM7.3871 16.7903L7.29289 16.7071C7.05141 16.4656 6.95925 16.1313 7.01642 15.819C7.0144 15.8188 7.01238 15.8185 7.01036 15.8182C7.03861 15.6646 7.10299 15.5164 7.20349 15.3871L7.28668 15.2929L11.2867 11.2929C11.6472 10.9324 12.2144 10.9047 12.6067 11.2097L12.7009 11.2929L16.7009 15.2929C17.0914 15.6835 17.0914 16.3166 16.7009 16.7071C16.508 16.9 16.2559 16.9977 16.0031 17C15.7855 17.0007 15.5678 16.9308 15.3871 16.7903L15.2929 16.7071L14.7137 16.128L14.7076 16.1282L12.9938 14.415L12.9938 21C12.9938 21.5492 12.5511 21.995 12.0032 22L12 22C11.4872 22 11.0645 21.614 11.0067 21.1166L11 21L11 16.1316L10.9938 16.1314L10.9938 14.415L8.7009 16.7071C8.508 16.9 8.25589 16.9977 8.00308 17C7.7855 17.0007 7.56775 16.9308 7.3871 16.7903Z" fill-rule="evenodd" stroke="rgb(150.96,150.96,150.96)" stroke-opacity="0" stroke-width="0" />
	</g>
</svg>
