<svg viewBox="0 0 24 24" xmlns="http://www.w3.org/2000/svg" xmlns:xlink="http://www.w3.org/1999/xlink" width="24.000000" height="24.000000" fill="none">
	<rect id="elm/general/moreassignees" width="24.000000" height="24.000000" x="0.000000" y="0.000000" fill="rgb(255,255,255)" fill-opacity="0" />
	<circle id="elm/general/oval/blue" cx="12" cy="12" r="12" fill="rgb(63,140,255)" />
	<circle id="elm/general/oval/blue" cx="12" cy="12" r="13" stroke="rgb(255,255,255)" stroke-width="2" />
	<path id="+5" d="M10.8327 12.084L10.8327 12.972L8.34869 12.972L8.34869 15.456L7.46069 15.456L7.46069 12.972L4.97669 12.972L4.97669 12.084L7.46069 12.084L7.46069 9.6L8.34869 9.6L8.34869 12.084L10.8327 12.084ZM15.508 10.596C16.036 10.596 16.5 10.708 16.9 10.932C17.3 11.156 17.608 11.472 17.824 11.88C18.048 12.288 18.16 12.756 18.16 13.284C18.16 13.828 18.036 14.308 17.788 14.724C17.548 15.14 17.2 15.464 16.744 15.696C16.296 15.92 15.772 16.032 15.172 16.032C14.652 16.032 14.136 15.94 13.624 15.756C13.12 15.572 12.7 15.324 12.364 15.012L12.796 14.1C13.556 14.716 14.352 15.024 15.184 15.024C15.744 15.024 16.18 14.876 16.492 14.58C16.804 14.276 16.96 13.852 16.96 13.308C16.96 12.788 16.804 12.372 16.492 12.06C16.18 11.748 15.764 11.592 15.244 11.592C14.5 11.592 13.888 11.88 13.408 12.456L12.616 12.456L12.616 7.488L17.8 7.488L17.8 8.484L13.84 8.484L13.84 11.148C14.28 10.78 14.836 10.596 15.508 10.596Z" fill="rgb(255,255,255)" fill-rule="nonzero" />
</svg>
