<svg viewBox="0 0 24 24" xmlns="http://www.w3.org/2000/svg" xmlns:xlink="http://www.w3.org/1999/xlink" width="24.000000" height="24.000000" fill="none">
	<rect id="elm/general/moreassignees" width="24.000000" height="24.000000" x="0.000000" y="0.000000" fill="rgb(255,255,255)" fill-opacity="0" />
	<circle id="elm/general/oval/blue" cx="12" cy="12" r="12" fill="rgb(63,140,255)" />
	<circle id="elm/general/oval/blue" cx="12" cy="12" r="13" stroke="rgb(255,255,255)" stroke-width="2" />
	<path id="+2" d="M4.96192 11.7L7.69792 11.7L7.69792 8.964L8.63392 8.964L8.63392 11.7L11.3699 11.7L11.3699 12.636L8.63392 12.636L8.63392 15.372L7.69792 15.372L7.69792 12.636L4.96192 12.636L4.96192 11.7ZM12.7141 14.58L16.1221 11.196C16.2421 11.084 16.3581 10.964 16.4701 10.836C16.5821 10.7 16.6821 10.56 16.7701 10.416C16.8581 10.272 16.9261 10.12 16.9741 9.96C17.0301 9.8 17.0581 9.632 17.0581 9.456C17.0581 9.248 17.0181 9.06 16.9381 8.892C16.8661 8.724 16.7621 8.584 16.6261 8.472C16.4981 8.352 16.3421 8.26 16.1581 8.196C15.9821 8.132 15.7941 8.1 15.5941 8.1C15.1781 8.1 14.8341 8.216 14.5621 8.448C14.2901 8.68 14.1181 9 14.0461 9.408L12.7981 9.3C12.8541 8.924 12.9621 8.6 13.1221 8.328C13.2901 8.048 13.4941 7.816 13.7341 7.632C13.9821 7.448 14.2621 7.312 14.5741 7.224C14.8941 7.136 15.2381 7.092 15.6061 7.092C15.9741 7.092 16.3181 7.144 16.6381 7.248C16.9661 7.344 17.2501 7.492 17.4901 7.692C17.7381 7.884 17.9301 8.128 18.0661 8.424C18.2101 8.712 18.2821 9.052 18.2821 9.444C18.2821 9.724 18.2381 9.988 18.1501 10.236C18.0701 10.476 17.9621 10.704 17.8261 10.92C17.6901 11.136 17.5341 11.34 17.3581 11.532C17.1821 11.724 16.9981 11.912 16.8061 12.096L14.0101 14.796L18.2821 14.796L18.2821 15.804L12.7141 15.804L12.7141 14.58Z" fill="rgb(255,255,255)" fill-rule="nonzero" />
</svg>
