<svg viewBox="0 0 48 48" xmlns="http://www.w3.org/2000/svg" xmlns:xlink="http://www.w3.org/1999/xlink" width="48.000000" height="48.000000" fill="none" customFrame="#000000">
	<defs>
		<filter id="pixso_custom_mask_type_outline">
			<feColorMatrix type="matrix" values="0 0 0 0 1 0 0 0 0 1 0 0 0 0 1 0 0 0 1 0 " />
		</filter>
	</defs>
	<mask id="mask_0" width="48.000000" height="48.000000" x="0.000000" y="0.000000" maskUnits="userSpaceOnUse">
		<g filter="url(#pixso_custom_mask_type_outline)">
			<rect id="bg" width="48.000000" height="48.000000" x="0.000000" y="0.000000" rx="10.000000" fill="rgb(255,255,255)" />
			<rect id="bg" width="48.000000" height="48.000000" x="0.000000" y="0.000000" rx="10.000000" stroke="rgb(150.96,150.96,150.96)" stroke-opacity="0" stroke-width="0" />
		</g>
	</mask>
	<g id="Image">
		<rect id="bg" width="48.000000" height="48.000000" x="0.000000" y="0.000000" rx="10.000000" fill="rgb(63,140,255)" />
		<rect id="bg" width="48.000000" height="48.000000" x="0.000000" y="0.000000" rx="10.000000" stroke="rgb(150.96,150.96,150.96)" stroke-opacity="0" stroke-width="0" />
		<g mask="url(#mask_0)">
			<path id="Fill 2" d="M16.9999 24C15.3499 24 14 22.6501 14 21.0002C14 19.3499 15.3499 18 16.9999 18C18.6499 18 20 19.3499 20 21.0002C20 22.6501 18.6499 24 16.9999 24Z" fill="rgb(255,255,255)" fill-rule="evenodd" />
			<path id="Fill 3" d="M41 17.9385C41 13.0223 36.95 9 32 9L31.9998 9C27.05 9 23 13.0223 23 17.9385L23 31C23 31 40.9984 29.0098 41 17.9397C41 17.9393 41 17.9389 41 17.9385Z" fill="rgb(255,255,255)" fill-rule="evenodd" />
			<path id="Fill 4" d="M7 33.9056L7 33.9042C7.0017 26.3569 20 25 20 25L20 33.9056C20 37.2574 17.0749 40 13.5 40C9.92489 40 7 37.2574 7 33.9056ZM11.7919 33.9056C11.7919 34.7863 12.5604 35.5071 13.5 35.5071C14.4394 35.5071 15.2079 34.7863 15.2079 33.9056C15.2079 33.0247 14.4394 32.3041 13.5 32.3041C12.5604 32.3041 11.7919 33.0247 11.7919 33.9056Z" fill="rgb(255,255,255)" fill-rule="evenodd" />
		</g>
	</g>
</svg>
