<svg viewBox="0 0 24 24" xmlns="http://www.w3.org/2000/svg" xmlns:xlink="http://www.w3.org/1999/xlink" width="24.000000" height="24.000000" fill="none" customFrame="#000000">
	<g id="icn/sidebar/infoportal/inactive">
		<rect id="container" width="24.000000" height="24.000000" x="0.000000" y="0.000000" />
		<path id="Shape" d="M22.7133 9.96615C22.427 9.56927 21.9681 9.33394 21.4793 9.33333L20.2529 9.33333L20.2392 8.26013C20.2252 7.16563 19.3339 6.28571 18.2394 6.28571L12.4751 6.28571C12.258 6.28571 12.0468 6.21507 11.8734 6.08444L9.6407 4.40254C9.2939 4.1413 8.8715 4 8.43731 4L4 4C2.89543 4 2 4.89543 2 6L2 18C2 19.1046 2.89543 20 4 20L18.5968 20C19.458 20 20.2224 19.4488 20.4944 18.6318L22.9223 11.339C23.0763 10.8743 22.9986 10.3638 22.7133 9.96615ZM11.2278 7.50474L8.85818 5.72432C8.68496 5.59418 8.47416 5.52381 8.25749 5.52381L4.52108 5.52381C3.96879 5.52381 3.52108 5.97152 3.52108 6.52381L3.52108 14.543L4.90782 10.3753C5.11437 9.75267 5.69595 9.33274 6.35086 9.33333L18.7318 9.33333L18.7318 8.80952C18.7318 8.25724 18.2841 7.80952 17.7318 7.80952L12.1405 7.80952C11.8115 7.80883 11.4915 7.70195 11.2278 7.50474Z" fill="rgb(125,133,146)" fill-rule="evenodd" />
		<path id="Shape" d="M22.7133 9.96615C22.427 9.56927 21.9681 9.33394 21.4793 9.33333L20.2529 9.33333L20.2392 8.26013C20.2252 7.16563 19.3339 6.28571 18.2394 6.28571L12.4751 6.28571C12.258 6.28571 12.0468 6.21507 11.8734 6.08444L9.6407 4.40254C9.2939 4.1413 8.8715 4 8.43731 4L4 4C2.89543 4 2 4.89543 2 6L2 18C2 19.1046 2.89543 20 4 20L18.5968 20C19.458 20 20.2224 19.4488 20.4944 18.6318L22.9223 11.339C23.0763 10.8743 22.9986 10.3638 22.7133 9.96615ZM11.2278 7.50474L8.85818 5.72432C8.68496 5.59418 8.47416 5.52381 8.25749 5.52381L4.52108 5.52381C3.96879 5.52381 3.52108 5.97152 3.52108 6.52381L3.52108 14.543L4.90782 10.3753C5.11437 9.75267 5.69595 9.33274 6.35086 9.33333L18.7318 9.33333L18.7318 8.80952C18.7318 8.25724 18.2841 7.80952 17.7318 7.80952L12.1405 7.80952C11.8115 7.80883 11.4915 7.70195 11.2278 7.50474Z" fill-rule="evenodd" stroke="rgb(63,140,255)" stroke-opacity="0" stroke-linecap="round" stroke-linejoin="round" stroke-width="0" />
	</g>
</svg>
